<svg width="48" height="48" viewBox="0 0 48 48" fill="none" xmlns="http://www.w3.org/2000/svg">
<path d="M13.5 15.5C15.5 13.5 18.5 13.5 20.5 15.5C22.5 17.5 22.5 20.5 20.5 22.5L10.5 32.5C8.5 34.5 5.5 34.5 3.5 32.5C1.5 30.5 1.5 27.5 3.5 25.5L13.5 15.5Z" fill="#12D2AC"/>
<path d="M23.5 32.5C25.5 34.5 28.5 34.5 30.5 32.5C32.5 30.5 32.5 27.5 30.5 25.5L20.5 15.5C18.5 13.5 15.5 13.5 13.5 15.5C11.5 17.5 11.5 20.5 13.5 22.5L23.5 32.5Z" fill="#0057FE" fill-opacity="0.33"/>
<path fill-rule="evenodd" clip-rule="evenodd" d="M20.5 15.5C18.5 13.5 15.5 13.5 13.5 15.5L13.498 15.502C12.4992 16.5018 10 19.0006 10 19.0006C10 19.0006 12.5002 21.5002 13.5 22.5L17 26L20.5 22.5C21.4998 21.5002 24 19.0006 24 19.0006C24 19.0006 21.5008 16.5018 20.502 15.502L20.5 15.5Z" fill="#0057FE"/>
<path d="M30.5 18.5C32.5 16.5 35.5 16.5 37.5 18.5C39.5 20.5 39.5 23.5 37.5 25.5L30.5 32.5C28.5 34.5 25.5 34.5 23.5 32.5C21.5 30.5 21.5 27.5 23.5 25.5L30.5 18.5Z" fill="#12D2AC"/>
<path fill-rule="evenodd" clip-rule="evenodd" d="M30.5 25.5C31.5 26.5 34 29 34 29C34 29 31.5 31.5 30.5 32.5C28.5 34.5 25.5 34.5 23.5 32.5C22.5 31.5 20 29 20 29C20 29 22.5 26.5 23.5 25.5L27 22L30.5 25.5Z" fill="#12D2AC"/>
<path d="M37.5 32.5C39.5 34.5 42.5 34.5 44.5 32.5C46.5 30.5 46.5 27.5 44.5 25.5L37.5 18.5C35.5 16.5 32.5 16.5 30.5 18.5C28.5 20.5 28.5 23.5 30.5 25.5L37.5 32.5Z" fill="#307AF2"/>
<path fill-rule="evenodd" clip-rule="evenodd" d="M34 29L37.5 25.5C38.5 24.5 41 22 41 22C41 22 38.5013 19.5033 37.5039 18.5039L37.5 18.5C35.75 16.75 33.2344 16.5312 31.293 17.8437C31.0156 18.0312 30.75 18.25 30.5 18.5C30.4985 18.5015 30.4971 18.5029 30.4956 18.5044C29.4985 19.5036 27 22 27 22C27 22 29.5 24.5 30.5 25.5L34 29Z" fill="#0057FE"/>
</svg>
